<svg width="200.000000" height="17.000000" viewBox="0 0 200 17" fill="none" xmlns="http://www.w3.org/2000/svg" xmlns:xlink="http://www.w3.org/1999/xlink">
	<desc>
			Created with Pixso.
	</desc>
	<defs>
		<clipPath id="clip1_1023">
			<rect id="Frame" rx="-0.500000" width="199.000000" height="16.000000" transform="translate(0.500000 0.500000)" fill="white" fill-opacity="0"/>
		</clipPath>
	</defs>
	<rect id="Frame" rx="-0.500000" width="199.000000" height="16.000000" transform="translate(0.500000 0.500000)" fill="#FFFFFF" fill-opacity="0"/>
	<g clip-path="url(#clip1_1023)">
		<path id="Vector" d="M34.91 2.95C35.35 2.51 35.93 2.21 36.52 2.21L36.81 2.21C37.39 2.21 37.98 2.36 38.42 2.66C38.86 2.95 39.15 3.4 39.15 3.84C39.15 4.28 39.29 4.43 39.59 4.58C39.88 4.73 40.02 4.87 40.32 4.87C40.61 4.87 40.9 4.73 41.05 4.58C41.34 4.43 41.34 4.13 41.34 3.69L41.34 3.84C41.34 3.25 41.19 2.8 40.9 2.36C40.61 1.92 40.32 1.47 39.88 1.18C39.44 0.88 39 0.59 38.42 0.44C38.13 0.14 37.54 0 36.81 0L36.52 0C35.93 0 35.2 0.14 34.76 0.29C34.18 0.59 33.74 0.88 33.3 1.33C32.87 1.77 32.57 2.21 32.28 2.8C31.99 3.4 31.84 3.99 31.84 4.58L31.84 12.26C31.84 12.86 31.99 13.6 32.28 14.04C32.57 14.63 32.87 15.07 33.3 15.52C33.74 15.96 34.18 16.26 34.76 16.55C35.35 16.85 35.93 16.85 36.66 16.85L36.96 16.85C37.54 16.85 38.27 16.7 38.71 16.4C39.29 16.11 39.73 15.81 40.17 15.37C40.61 14.93 40.9 14.48 41.19 13.89C41.49 13.3 41.63 12.71 41.63 11.97L41.63 8.72C41.63 8.42 41.49 8.13 41.34 7.83C41.05 7.53 40.9 7.53 40.46 7.53L37.39 7.53C36.96 7.53 36.66 7.68 36.52 7.83C36.37 8.13 36.23 8.27 36.23 8.57C36.23 8.86 36.37 9.16 36.52 9.31C36.66 9.6 36.96 9.6 37.39 9.6L39.29 9.6L39.29 12.12C39.29 12.41 39.29 12.71 39.15 13C39 13.3 38.86 13.6 38.56 13.74C38.42 13.89 38.13 14.19 37.83 14.33C37.54 14.48 37.25 14.48 36.96 14.48L36.66 14.48C36.08 14.48 35.5 14.19 35.06 13.74C34.62 13.3 34.33 12.71 34.33 12.12L34.33 4.58C34.18 3.99 34.47 3.4 34.91 2.95Z" fill="#272524" fill-opacity="1.000000" fill-rule="nonzero"/>
		<path id="Vector" d="M60.18 7.83C60.48 7.39 60.62 6.94 60.77 6.5C60.92 6.06 60.92 5.46 60.92 5.02L60.92 4.87C60.92 4.28 60.77 3.54 60.48 3.1C60.18 2.51 59.89 2.06 59.45 1.62C59.02 1.18 58.58 0.88 57.99 0.59C57.41 0.29 56.82 0.14 56.24 0.14L52.3 0.14C52 0.14 51.71 0.29 51.57 0.44C51.27 0.73 51.27 0.88 51.27 1.18L51.27 15.81C51.27 16.26 51.42 16.55 51.57 16.7C51.86 16.85 52 17 52.44 17C52.73 17 53.03 16.85 53.17 16.7C53.46 16.55 53.46 16.26 53.46 15.81L53.46 9.75L55.36 9.75L58.43 16.4C58.58 16.7 58.72 16.85 58.87 16.85C59.02 17 59.16 17 59.45 17C59.89 17 60.18 16.85 60.33 16.7C60.48 16.55 60.62 16.26 60.62 15.81C60.62 15.66 60.62 15.52 60.48 15.37L57.7 9.6C58.43 9.46 58.87 9.16 59.31 8.86C59.6 8.57 59.89 8.27 60.18 7.83ZM58.72 5.02C58.72 5.61 58.58 6.2 58.14 6.65C57.7 7.09 57.12 7.39 56.53 7.39L53.61 7.39L53.61 2.51L56.39 2.51C56.97 2.51 57.56 2.8 57.99 3.25C58.43 3.69 58.72 4.28 58.72 5.02Z" fill="#272524" fill-opacity="1.000000" fill-rule="nonzero"/>
		<path id="Vector" d="M78.74 1.33C78.3 0.88 77.86 0.59 77.28 0.29C76.69 0.14 76.11 0 75.38 0L75.23 0C74.65 0 73.92 0.14 73.33 0.29C72.75 0.59 72.31 0.88 71.87 1.33C71.43 1.77 71.14 2.21 70.85 2.8C70.56 3.4 70.41 3.99 70.41 4.58L70.41 12.26C70.41 12.86 70.56 13.6 70.85 14.04C71.14 14.63 71.43 15.07 71.87 15.52C72.31 15.96 72.75 16.26 73.33 16.55C73.92 16.85 74.5 16.85 75.09 16.85L75.38 16.85C75.96 16.85 76.69 16.7 77.13 16.55C77.72 16.26 78.15 15.96 78.59 15.52C79.03 15.07 79.32 14.63 79.62 14.04C79.91 13.45 80.05 12.86 80.05 12.26L80.05 4.58C80.05 3.99 79.91 3.4 79.62 2.8C79.47 2.21 79.18 1.77 78.74 1.33ZM77.86 12.41C77.86 13.15 77.57 13.6 77.13 14.04C76.69 14.48 76.11 14.78 75.52 14.78L75.23 14.78C74.65 14.78 74.06 14.48 73.63 14.04C73.19 13.6 72.9 13 72.9 12.41L72.9 4.58C72.9 3.99 73.19 3.4 73.63 2.95C74.06 2.51 74.65 2.21 75.23 2.21L75.52 2.21C76.11 2.21 76.69 2.36 77.13 2.8C77.57 3.25 77.86 3.84 77.86 4.43L77.86 12.41Z" fill="#272524" fill-opacity="1.000000" fill-rule="nonzero"/>
		<path id="Vector" d="M95.39 15.96L98.9 1.47C98.9 1.33 98.9 1.33 98.9 1.18C98.9 0.88 98.75 0.59 98.61 0.44C98.31 0.14 98.02 0 97.73 0C97.44 0 97.29 0 97.15 0.14C97 0.29 96.85 0.44 96.71 0.88L94.08 11.97L91.45 0.88C91.3 0.59 91.16 0.29 91.01 0.14C90.86 0 90.57 0 90.43 0C90.13 0 89.84 0.14 89.55 0.29C89.26 0.59 89.11 0.88 89.11 1.18C89.11 1.33 89.11 1.47 89.11 1.47L92.62 16.11C92.76 16.4 92.91 16.7 93.06 16.85C93.35 17 93.64 17.14 93.93 17.14C94.22 17.14 94.52 17 94.81 16.85C95.1 16.55 95.25 16.4 95.39 15.96Z" fill="#272524" fill-opacity="1.000000" fill-rule="nonzero"/>
		<path id="Vector" d="M109.56 16.85L116.87 16.85C117.31 16.85 117.6 16.7 117.75 16.55C117.89 16.26 118.04 16.11 118.04 15.81C118.04 15.52 117.89 15.22 117.75 15.07C117.6 14.78 117.31 14.78 116.87 14.78L110.73 14.78L110.73 9.46L114.97 9.46C115.41 9.46 115.7 9.31 115.85 9.16C115.99 8.86 116.14 8.72 116.14 8.42C116.14 8.13 115.99 7.83 115.85 7.68C115.7 7.39 115.41 7.39 114.97 7.39L110.73 7.39L110.73 2.51L116.87 2.51C117.31 2.51 117.6 2.36 117.75 2.21C117.89 1.92 118.04 1.77 118.04 1.47C118.04 1.18 117.89 0.88 117.75 0.73C117.6 0.44 117.31 0.44 116.87 0.44L109.56 0.44C109.27 0.44 108.98 0.59 108.83 0.73C108.54 1.03 108.54 1.18 108.54 1.47L108.54 15.96C108.54 16.26 108.69 16.55 108.83 16.7C108.98 16.7 109.27 16.85 109.56 16.85Z" fill="#272524" fill-opacity="1.000000" fill-rule="nonzero"/>
		<path id="Vector" d="M138.34 16.7C138.64 16.85 138.78 17 139.08 17C139.37 17 139.66 16.85 139.81 16.7C140.1 16.55 140.1 16.26 140.1 15.81L140.1 1.18C140.1 0.88 139.95 0.59 139.81 0.44C139.81 0.14 139.51 0 139.22 0L138.93 0C138.64 0 138.34 0 138.2 0.14C138.05 0.29 137.91 0.44 137.76 0.73L134.25 8.72L130.75 0.73C130.46 0.29 130.16 0 129.58 0L129.29 0C128.99 0 128.7 0.14 128.56 0.29C128.26 0.59 128.26 0.73 128.26 1.03L128.26 15.66C128.26 16.11 128.41 16.4 128.56 16.55C128.85 16.7 128.99 16.85 129.29 16.85C129.58 16.85 129.87 16.7 130.02 16.55C130.31 16.4 130.31 16.11 130.31 15.66L130.31 5.32L132.94 11.38C133.09 11.67 133.23 11.82 133.38 11.97C133.52 12.12 133.82 12.12 134.11 12.12C134.4 12.12 134.55 12.12 134.84 11.97C135.13 11.82 135.28 11.67 135.28 11.38L137.91 5.32L137.91 15.66C138.05 16.26 138.2 16.55 138.34 16.7Z" fill="#272524" fill-opacity="1.000000" fill-rule="nonzero"/>
		<path id="Vector" d="M156.46 0.14C156.17 0 155.88 0 155.58 0C155.29 0 155 0.14 154.85 0.29C154.56 0.44 154.41 0.73 154.27 1.03L149.74 15.66C149.74 15.81 149.74 15.96 149.74 16.11C149.74 16.4 149.89 16.7 150.03 16.85C150.18 17 150.47 17.14 150.91 17.14C151.2 17.14 151.35 17.14 151.64 17C151.93 16.85 152.08 16.7 152.08 16.4L153.1 13.15L158.36 13.15L159.38 16.4C159.53 16.7 159.67 16.85 159.82 17C159.97 17.14 160.26 17.14 160.4 17.14C160.7 17.14 160.99 17 161.28 16.85C161.43 16.7 161.57 16.4 161.57 16.11C161.57 15.96 161.57 15.96 161.57 15.81L157.04 1.18C156.9 0.59 156.75 0.29 156.46 0.14ZM153.68 10.64L155.58 4.28L157.48 10.64L153.68 10.64Z" fill="#272524" fill-opacity="1.000000" fill-rule="nonzero"/>
		<path id="Vector" d="M177.64 0.44C177.06 0.14 176.47 0.14 175.89 0.14L172.09 0.14C171.8 0.14 171.51 0.29 171.36 0.44C171.07 0.73 171.07 0.88 171.07 1.18L171.07 15.66C171.07 15.96 171.22 16.26 171.36 16.4C171.65 16.7 171.8 16.7 172.09 16.7L175.89 16.7C176.47 16.7 177.21 16.55 177.64 16.4C178.23 16.11 178.67 15.81 179.1 15.52C179.54 15.22 179.83 14.63 180.13 14.04C180.42 13.45 180.57 12.86 180.57 12.12L180.57 4.87C180.57 4.13 180.42 3.54 180.13 2.95C179.83 2.36 179.54 1.92 179.1 1.47C178.81 1.03 178.23 0.73 177.64 0.44ZM178.23 12.12C178.23 12.41 178.23 12.71 178.08 13C177.94 13.3 177.79 13.6 177.5 13.74C177.35 13.89 177.06 14.19 176.77 14.33C176.47 14.48 176.18 14.48 175.89 14.48L173.26 14.48L173.26 2.51L175.89 2.51C176.18 2.51 176.47 2.51 176.77 2.66C177.06 2.8 177.35 2.95 177.5 3.25C177.64 3.4 177.94 3.69 178.08 3.99C178.23 4.28 178.23 4.58 178.23 4.87L178.23 12.12Z" fill="#272524" fill-opacity="1.000000" fill-rule="nonzero"/>
		<path id="Vector" d="M198.83 2.51C199.27 2.51 199.56 2.36 199.7 2.21C199.85 1.92 200 1.77 200 1.47C200 1.18 199.85 0.88 199.7 0.73C199.56 0.44 199.27 0.44 198.83 0.44L191.52 0.44C191.23 0.44 190.94 0.59 190.79 0.73C190.5 1.03 190.5 1.18 190.5 1.47L190.5 15.96C190.5 16.26 190.65 16.55 190.79 16.7C191.08 17 191.23 17 191.52 17L198.83 17C199.27 17 199.56 16.85 199.7 16.7C199.85 16.4 200 16.26 200 15.96C200 15.66 199.85 15.37 199.7 15.22C199.56 14.93 199.27 14.93 198.83 14.93L192.69 14.93L192.69 9.46L196.93 9.46C197.37 9.46 197.66 9.31 197.8 9.16C197.95 8.86 198.1 8.72 198.1 8.42C198.1 8.13 197.95 7.83 197.8 7.68C197.66 7.39 197.37 7.39 196.93 7.39L192.69 7.39L192.69 2.51L198.83 2.51Z" fill="#272524" fill-opacity="1.000000" fill-rule="nonzero"/>
		<path id="Vector" d="M11.54 16.55L11.54 16.4C11.54 16.55 9.93 12.41 9.34 11.82C8.03 10.49 6.57 10.64 5.55 10.64L0.58 10.64C0.29 10.64 0 10.79 0 11.08L0 11.23C0 11.23 1.6 15.37 2.19 15.81C3.36 17 4.38 17 5.98 17L11.1 17C11.39 17 11.54 16.85 11.54 16.55Z" fill="#272524" fill-opacity="1.000000" fill-rule="nonzero"/>
		<path id="Vector" d="M20.01 11.38C20.01 8.27 16.8 1.47 16.36 0.29C16.36 0.14 16.21 0 15.92 0C15.77 0 15.48 0.14 15.48 0.29C13.29 5.46 11.68 9.31 11.68 9.31C11.54 9.75 11.39 10.2 11.54 10.64C11.68 11.08 12.56 12.86 13.14 14.33C14.02 16.4 14.17 17 16.07 17C18.4 17 20.01 14.93 20.01 11.38Z" fill="#272524" fill-opacity="1.000000" fill-rule="nonzero"/>
	</g>
</svg>
